<svg xmlns="http://www.w3.org/2000/svg" width="1em" height="1em" viewBox="0 0 24 24">
  <path fill="currentColor"
    d="M24 12A12 12 0 1 1 12 0a12.01 12.01 0 0 1 12 12m-1.5 0A10.5 10.5 0 1 0 12 22.5A10.516 10.516 0 0 0 22.5 12M7.542 5.841l4.074 1.739l-1.739 4.073L5.8 9.914zm5.158 7.926l2.185 4.406H14.2l-2.343-4.687l-2.295 4.687h-.656l2.4-5.01l-1.046-.441l.282-.656l3.215 1.364l-.281.67Zm-.553-5.451l3.216 1.378l-1.378 3.2l-3.2-1.364l1.364-3.215Zm3.764 2.011l2.56 1.082l-1.1 2.546l-2.545-1.083l1.082-2.545Z" />
</svg>