<svg width="490.67" height="512" viewBox="0 0 23 24" xmlns="http://www.w3.org/2000/svg">
  <path fill="#000000"
    d="M0 13.75C0 19.411 4.589 24 10.25 24S20.5 19.411 20.5 13.75a12.063 12.063 0 0 0-1.531-5.501L19 8.31a3.781 3.781 0 0 1-.781-2.309V6c0-1.75 1.846-3.5 3.78-3.5h.247a1.251 1.251 0 0 0 .002-2.5h-.252c-3.075 0-5.706 1.64-6.33 5a9.12 9.12 0 0 0-5.438-1.499l.019-.001C4.588 3.503.002 8.09.001 13.749zm9 0a1.25 1.25 0 1 1 1.25 1.251h-.003a1.25 1.25 0 0 1-1.246-1.25v-.001zm-6.5 0a2.247 2.247 0 1 1 0 .003v-.003zm11 0a2.247 2.247 0 1 1 0 .003v-.003zM8 19.25a2.25 2.25 0 1 1 2.25 2.25h-.004A2.25 2.25 0 0 1 8 19.25zm0-11a2.247 2.247 0 1 1 4.494.002a2.247 2.247 0 0 1-4.494 0v-.003z" />
</svg>