<svg width="0" height="0" class="hidden">
  <symbol xmlns="http://www.w3.org/2000/svg" viewBox="0 0 24 24" id="caret-right">
    <g fill="none" fill-rule="evenodd">
      <path
        d="M24 0v24H0V0h24ZM12.593 23.258l-.011.002l-.071.035l-.02.004l-.014-.004l-.071-.035c-.01-.004-.019-.001-.024.005l-.004.01l-.017.428l.005.02l.01.013l.104.074l.015.004l.012-.004l.104-.074l.012-.016l.004-.017l-.017-.427c-.002-.01-.009-.017-.017-.018Zm.265-.113l-.013.002l-.185.093l-.01.01l-.003.011l.018.43l.005.012l.008.007l.201.093c.012.004.023 0 .029-.008l.004-.014l-.034-.614c-.003-.012-.01-.02-.02-.022Zm-.715.002a.023.023 0 0 0-.027.006l-.006.014l-.034.614c0 .012.007.02.017.024l.015-.002l.201-.093l.01-.008l.004-.011l.017-.43l-.003-.012l-.01-.01l-.184-.092Z">
      </path>
      <path fill="#000000"
        d="M16.06 10.94a1.5 1.5 0 0 1 0 2.12l-5.656 5.658a1.5 1.5 0 1 1-2.121-2.122L12.879 12L8.283 7.404a1.5 1.5 0 0 1 2.12-2.122l5.658 5.657Z">
      </path>
    </g>
  </symbol>
  <symbol xmlns="http://www.w3.org/2000/svg" viewBox="0 0 24 24" id="codepen">
    <path fill="#000000"
      d="m8.21 12l-1.33.89v-1.78l1.33.89m3.26-2.18V7.34l-4.16 2.78l1.85 1.24l2.31-1.54m5.23.3l-4.17-2.78v2.48l2.31 1.54l1.86-1.24m-9.39 3.76l4.16 2.78v-2.48l-2.31-1.54l-1.85 1.24m5.22.3v2.48l4.17-2.78l-1.86-1.24l-2.31 1.54M12 10.74L10.12 12L12 13.26L13.88 12L12 10.74M22 12c0 5.5-4.5 10-10 10S2 17.5 2 12S6.5 2 12 2s10 4.5 10 10m-3.82-1.88v-.07l-.01-.05l-.01-.05c-.01-.01-.01-.02-.02-.04l-.01-.02l-.02-.04l-.01-.02l-.02-.03l-.02-.03l-.03-.03l-.03-.02V9.7l-.04-.02l-.01-.01l-5.65-3.76a.528.528 0 0 0-.59 0L6.05 9.67v.01L6 9.7v.02l-.03.02l-.03.03l-.01.03l-.03.03l-.01.02l-.02.04l-.01.02l-.02.04V10h-.01l-.01.05v3.9l.01.05h.01v.05c.01.01.01.02.02.04l.01.02l.02.04l.01.02l.02.03l.02.03l.03.03l.03.02v.02l.04.02l.01.01l5.66 3.77c.08.06.19.08.29.08c.1 0 .21-.03.3-.08l5.65-3.77l.01-.01l.04-.02v-.02l.03-.02l.03-.03l.02-.03l.02-.03l.01-.02l.02-.04l.01-.02l.02-.04V14h.01l.01-.05v-3.83m-1.06 2.77v-1.78l-1.33.89l1.33.89Z">
    </path>
  </symbol>
  <symbol xmlns="http://www.w3.org/2000/svg" viewBox="0 0 24 24" id="eye-close">
    <path fill="none" stroke="#000000" stroke-linecap="round" stroke-linejoin="round" stroke-width="2"
      d="M3 10a13.358 13.358 0 0 0 3 2.685M21 10a13.358 13.358 0 0 1-3 2.685m-8 1.624L9.5 16.5m.5-2.19a10.59 10.59 0 0 0 4 0m-4 0a11.275 11.275 0 0 1-4-1.625m8 1.624l.5 2.191m-.5-2.19a11.275 11.275 0 0 0 4-1.625m0 0l1.5 1.815M6 12.685L4.5 14.5">
    </path>
  </symbol>
  <symbol xmlns="http://www.w3.org/2000/svg" viewBox="0 0 20 20" id="eye-open">
    <g fill="#000000">
      <path fill-rule="evenodd"
        d="M10 16.5c4.897 0 9-2.308 9-5.5s-4.103-5.5-9-5.5S1 7.808 1 11s4.103 5.5 9 5.5Zm0-9c3.94 0 7 1.722 7 3.5s-3.06 3.5-7 3.5s-7-1.722-7-3.5s3.06-3.5 7-3.5Z"
        clip-rule="evenodd"></path>
      <path
        d="M9 3.5a1 1 0 0 1 2 0v3a1 1 0 1 1-2 0v-3Zm4.02.304a1 1 0 0 1 1.96.392l-.5 2.5a1 1 0 0 1-1.96-.392l.5-2.5Zm-6.04 0a1 1 0 0 0-1.96.392l.5 2.5a1 1 0 0 0 1.96-.392l-.5-2.5ZM2.857 4.986a1 1 0 1 0-1.714 1.029l1.5 2.5a1 1 0 1 0 1.714-1.03l-1.5-2.5Zm14.285 0a1 1 0 0 1 1.716 1.029l-1.5 2.5a1 1 0 0 1-1.716-1.03l1.5-2.5Z">
      </path>
      <path fill-rule="evenodd" d="M10 14a3.5 3.5 0 1 0 0-7a3.5 3.5 0 0 0 0 7Zm0-5a1.5 1.5 0 1 1 0 3a1.5 1.5 0 0 1 0-3Z"
        clip-rule="evenodd"></path>
    </g>
  </symbol>
  <symbol xmlns="http://www.w3.org/2000/svg" viewBox="0 0 23 24" id="film">
    <path fill="#000000"
      d="M0 13.75C0 19.411 4.589 24 10.25 24S20.5 19.411 20.5 13.75a12.063 12.063 0 0 0-1.531-5.501L19 8.31a3.781 3.781 0 0 1-.781-2.309V6c0-1.75 1.846-3.5 3.78-3.5h.247a1.251 1.251 0 0 0 .002-2.5h-.252c-3.075 0-5.706 1.64-6.33 5a9.12 9.12 0 0 0-5.438-1.499l.019-.001C4.588 3.503.002 8.09.001 13.749zm9 0a1.25 1.25 0 1 1 1.25 1.251h-.003a1.25 1.25 0 0 1-1.246-1.25v-.001zm-6.5 0a2.247 2.247 0 1 1 0 .003v-.003zm11 0a2.247 2.247 0 1 1 0 .003v-.003zM8 19.25a2.25 2.25 0 1 1 2.25 2.25h-.004A2.25 2.25 0 0 1 8 19.25zm0-11a2.247 2.247 0 1 1 4.494.002a2.247 2.247 0 0 1-4.494 0v-.003z">
    </path>
  </symbol>
  <symbol xmlns="http://www.w3.org/2000/svg" viewBox="0 0 16 16" id="github">
    <path fill="#000000"
      d="M8 0C3.58 0 0 3.58 0 8c0 3.54 2.29 6.53 5.47 7.59c.4.07.55-.17.55-.38c0-.19-.01-.82-.01-1.49c-2.01.37-2.53-.49-2.69-.94c-.09-.23-.48-.94-.82-1.13c-.28-.15-.68-.52-.01-.53c.63-.01 1.08.58 1.23.82c.72 1.21 1.87.87 2.33.66c.07-.52.28-.87.51-1.07c-1.78-.2-3.64-.89-3.64-3.95c0-.87.31-1.59.82-2.15c-.08-.2-.36-1.02.08-2.12c0 0 .67-.21 2.2.82c.64-.18 1.32-.27 2-.27c.68 0 1.36.09 2 .27c1.53-1.04 2.2-.82 2.2-.82c.44 1.1.16 1.92.08 2.12c.51.56.82 1.27.82 2.15c0 3.07-1.87 3.75-3.65 3.95c.29.25.54.73.54 1.48c0 1.07-.01 1.93-.01 2.2c0 .21.15.46.55.38A8.012 8.012 0 0 0 16 8c0-4.42-3.58-8-8-8z">
    </path>
  </symbol>
  <symbol xmlns="http://www.w3.org/2000/svg" viewBox="0 0 16 16" id="heart">
    <path fill="#ef4444" fill-rule="evenodd"
      d="M8 1.314C12.438-3.248 23.534 4.735 8 15C-7.534 4.736 3.562-3.248 8 1.314z"></path>
  </symbol>
  <symbol xmlns="http://www.w3.org/2000/svg" viewBox="0 0 24 24" id="home">
    <defs>
      <path id="solarHomeBold0" fill-rule="evenodd" d="M10.75 9.5a1.25 1.25 0 1 1 2.5 0a1.25 1.25 0 0 1-2.5 0Z"
        clip-rule="evenodd"></path>
    </defs>
    <g fill="#000000">
      <path d="M18.5 3H16a.5.5 0 0 0-.5.5v.059l3.5 2.8V3.5a.5.5 0 0 0-.5-.5Z"></path>
      <use href="#solarHomeBold0" fill-rule="evenodd" clip-rule="evenodd"></use>
      <path fill-rule="evenodd"
        d="m20.75 10.96l.782.626a.75.75 0 0 0 .936-1.172l-8.125-6.5a3.75 3.75 0 0 0-4.686 0l-8.125 6.5a.75.75 0 0 0 .937 1.172l.781-.626v10.29H2a.75.75 0 0 0 0 1.5h20a.75.75 0 0 0 0-1.5h-1.25V10.96ZM9.25 9.5a2.75 2.75 0 1 1 5.5 0a2.75 2.75 0 0 1-5.5 0Zm2.8 3.75c.664 0 1.237 0 1.696.062c.492.066.963.215 1.345.597s.531.853.597 1.345c.058.43.062.96.062 1.573v4.423h-1.5V17c0-.728-.002-1.2-.048-1.546c-.044-.325-.114-.427-.172-.484c-.057-.057-.159-.128-.484-.172c-.347-.046-.818-.048-1.546-.048c-.728 0-1.2.002-1.546.048c-.325.044-.427.115-.484.172c-.057.057-.128.159-.172.484c-.046.347-.048.818-.048 1.546v4.25h-1.5v-4.3c0-.664 0-1.237.062-1.696c.066-.492.215-.963.597-1.345s.854-.531 1.345-.597c.459-.062 1.032-.062 1.697-.062h.098Z"
        clip-rule="evenodd"></path>
      <use href="#solarHomeBold0" fill-rule="evenodd" clip-rule="evenodd"></use>
    </g>
  </symbol>
  <symbol xmlns="http://www.w3.org/2000/svg" viewBox="0 0 24 24" id="linkedin">
    <path fill="#000000"
      d="M19 3a2 2 0 0 1 2 2v14a2 2 0 0 1-2 2H5a2 2 0 0 1-2-2V5a2 2 0 0 1 2-2h14m-.5 15.5v-5.3a3.26 3.26 0 0 0-3.26-3.26c-.85 0-1.84.52-2.32 1.3v-1.11h-2.79v8.37h2.79v-4.93c0-.77.62-1.4 1.39-1.4a1.4 1.4 0 0 1 1.4 1.4v4.93h2.79M6.88 8.56a1.68 1.68 0 0 0 1.68-1.68c0-.93-.75-1.69-1.68-1.69a1.69 1.69 0 0 0-1.69 1.69c0 .93.76 1.68 1.69 1.68m1.39 9.94v-8.37H5.5v8.37h2.77Z">
    </path>
  </symbol>
  <symbol xmlns="http://www.w3.org/2000/svg" viewBox="0 0 24 24" id="medium">
    <path fill="#000000"
      d="M4.001 3h16a1 1 0 0 1 1 1v16a1 1 0 0 1-1 1h-16a1 1 0 0 1-1-1V4a1 1 0 0 1 1-1Zm13.3 12.94c-.1-.05-.15-.2-.15-.301V8.006c0-.1.05-.25.15-.351l.955-1.105V6.5h-3.415l-2.56 6.478L9.367 6.5H5.852v.05l.904 1.256c.201.2.251.502.251.753v5.523c.05.302 0 .653-.15.954L5.5 16.894v.05h3.616v-.05L7.76 15.087c-.15-.302-.201-.603-.15-.954V9.11c.05.1.1.1.15.301l3.414 7.633h.05L14.54 8.76c-.05.3-.05.652-.05.904v5.925c0 .15-.05.25-.15.351l-1.005.954v.05h4.921v-.05l-.954-.954Z">
    </path>
  </symbol>
  <symbol xmlns="http://www.w3.org/2000/svg" viewBox="0 0 48 48" id="people">
    <path fill="#000000"
      d="M16 24a8 8 0 1 0 0-16a8 8 0 0 0 0 16Zm18 0a6 6 0 1 0 0-12a6 6 0 0 0 0 12ZM6.75 27A3.75 3.75 0 0 0 3 30.75V32s0 9 13 9s13-9 13-9v-1.25A3.75 3.75 0 0 0 25.25 27H6.75Zm21.924 11.089c1.376.558 3.119.911 5.325.911c10.5 0 10.5-8 10.5-8v-.25A3.75 3.75 0 0 0 40.75 27H29.607a5.728 5.728 0 0 1 1.391 3.75v1.295l-.001.057a7.565 7.565 0 0 1-.04.581a9.697 9.697 0 0 1-.241 1.324a10.684 10.684 0 0 1-2.042 4.082Z">
    </path>
  </symbol>
  <symbol xmlns="http://www.w3.org/2000/svg" viewBox="0 0 20 20" id="planet">
    <g fill="#000000" fill-rule="evenodd" clip-rule="evenodd">
      <path d="M10 3a7 7 0 1 0 0 14a7 7 0 0 0 0-14Zm-9 7a9 9 0 1 1 18 0a9 9 0 0 1-18 0Z"></path>
      <path
        d="M16.806 4.93a1 1 0 0 1-.367 1.365c-.676.39-1.564.688-2.55.897a1 1 0 1 1-.415-1.956c.872-.185 1.537-.427 1.966-.674a1 1 0 0 1 1.366.367ZM3.392 5.1a1 1 0 0 1 1.342-.445c1.033.518 2.958.915 5.266.915a1 1 0 0 1 0 2c-2.462 0-4.739-.414-6.162-1.127A1 1 0 0 1 3.392 5.1Zm14.363 3.317a1 1 0 0 1-.458 1.338C15.699 10.538 12.91 11 9.867 11c-2.87 0-5.494-.41-7.116-1.102a1 1 0 1 1 .784-1.84C4.805 8.6 7.123 9 9.867 9c2.931 0 5.358-.457 6.55-1.04a1 1 0 0 1 1.338.457Zm0 3.429a1 1 0 0 1-.458 1.338c-.853.418-2.247.719-3.706.92a35.96 35.96 0 0 1-4.734.325a1 1 0 1 1 0-2a33.96 33.96 0 0 0 4.46-.306c1.445-.2 2.559-.47 3.1-.735a1 1 0 0 1 1.338.458Zm-15.532.169a1 1 0 0 1 1.312-.528c.439.187 1.02.363 1.723.512a1 1 0 1 1-.412 1.957c-.789-.167-1.502-.377-2.095-.63a1 1 0 0 1-.528-1.311Z">
      </path>
      <path
        d="M6.857 13.286a.429.429 0 1 0 0 .857a.429.429 0 0 0 0-.857Zm-2.428.428a2.429 2.429 0 1 1 4.857 0a2.429 2.429 0 0 1-4.857 0Z">
      </path>
    </g>
  </symbol>
  <symbol xmlns="http://www.w3.org/2000/svg" viewBox="0 0 20 20" id="species">
    <circle cx="9.5" cy="2.5" r="2.5" fill="#000000"></circle>
    <path fill="#000000"
      d="M14.434 7.33a6.407 6.407 0 0 1 1.677 4.322c0 3.582-2.951 6.488-6.59 6.488c-3.64 0-6.595-2.906-6.595-6.488c0-1.643.624-3.141 1.648-4.284L3.138 5.967a8.374 8.374 0 0 0-2.137 5.592C1 16.219 4.81 20 9.503 20s8.498-3.78 8.498-8.441a8.383 8.383 0 0 0-2.152-5.615Z">
    </path>
    <path fill="#000000"
      d="M4.368 3.754L4.34 5.525s.22.93 1.75 1.411c1.487.468 3.581.3 5.048.964c1.273.575 1.71 1.53 1.71 1.53l.03-1.66s-.11-.876-1.285-1.239c-1.176-.362-3.141-.48-5.428-1.265c-1.025-.352-1.812-1.485-1.798-1.512Zm1.665 3.798L5.97 9.5s.16.415 1.578.826c.848.246 3.364.467 4.666.998c1.139.464 1.665 1.554 1.665 1.554l.12-1.623c-.376-.92-.81-1.148-2.342-1.544c-1.044-.27-2.24-.318-3.163-.625c-1.811-.603-2.46-1.533-2.46-1.533Z">
    </path>
    <path fill="#000000"
      d="M14.492 3.74v1.738s-.244.807-1.556 1.295c-1.69.628-4.273.583-6.004 1.556a2.033 2.033 0 0 0-.962 1.167l.027-1.999s.3-.743 1.83-1.22c1.964-.614 3.21-.38 4.962-1.128c1.14-.487 1.716-1.395 1.703-1.409Zm-9.6 7.474l-.069 1.918s.301.61 1.192.99c1.703.728 2.904.193 5.405 1.332c1.129.513 1.395 1.362 1.395 1.362l-.006-1.926s-.147-.59-1.242-.953c-1.095-.362-3.488-.609-5.113-1.22c-1.117-.42-1.576-1.517-1.562-1.503Z">
    </path>
    <path fill="#000000"
      d="m5.984 16.62l.027-1.837s.126-.53 1.83-1.074c1.606-.512 3.602-.502 4.537-.89c.935-.39 1.62-1.566 1.62-1.566l-.007 1.95s.049.696-1.378 1.15c-1.856.59-3.03.38-4.859 1.065c-1.036.389-1.743 1.243-1.77 1.203Zm6.896-8.851l.022 1.674s-.262.492-1.417.96c-1.573.64-3.003.278-5.007 1.133c-.748.318-1.656 1.596-1.656 1.596l.053-2.026s.539-.87 1.51-1.22c2.083-.752 2.858-.202 5.035-1.1c.736-.305 1.438-.934 1.46-1.017Z">
    </path>
  </symbol>
  <symbol xmlns="http://www.w3.org/2000/svg" viewBox="0 0 50 50" id="star-wars">
    <path
      d="M 18.564453 2 C 11.636453 2 6 7.6364531 6 14.564453 L 6 15 L 44 15 L 44 14.564453 C 44 7.6364531 38.363547 2 31.435547 2 L 24 2 L 18.564453 2 z M 6 17 L 6 19.277344 C 5.405 19.624344 5 20.263 5 21 L 5 27 L 5 27.003906 C 3.738 27.998906 3 29.629422 3 31.482422 C 3 33.030422 3.6132031 34.516156 4.6582031 35.535156 L 7.3613281 38.359375 C 7.2263281 38.585375 7.1110625 38.822078 7.0390625 39.080078 C 6.8080625 39.910078 6.9468281 40.799531 7.4238281 41.519531 L 8.6582031 43.384766 C 11.020203 47.206766 13.512484 47.955078 17.021484 47.955078 L 19.722656 47.955078 C 21.179656 47.955078 22.41775 47.004359 22.84375 45.693359 L 23 45.693359 L 23 46 C 23 46.552 23.448 47 24 47 C 24.552 47 25 46.552 25 46 C 25 46.552 25.448 47 26 47 C 26.552 47 27 46.552 27 46 L 27 45.693359 L 27.15625 45.693359 C 27.58225 47.004359 28.820344 47.955078 30.277344 47.955078 L 32.978516 47.955078 C 36.487516 47.955078 38.980172 47.208109 41.326172 43.412109 L 42.576172 41.519531 C 43.053172 40.799531 43.193891 39.910078 42.962891 39.080078 C 42.890891 38.822078 42.774625 38.584375 42.640625 38.359375 L 45.318359 35.560547 C 46.386359 34.516547 47 33.031422 47 31.482422 C 47 29.628422 46.262 27.998906 45 27.003906 L 45 27 L 45 21 C 45 20.263 44.595 19.624344 44 19.277344 L 44 17 L 6 17 z M 9.9394531 20 L 21.005859 20 C 22.013859 20 22.356703 21.350984 21.470703 21.833984 L 13.107422 26.880859 C 12.641422 27.135859 12.057875 26.967906 11.796875 26.503906 L 9.09375 21.455078 C 8.72775 20.805078 9.1944531 20 9.9394531 20 z M 28.966797 20 L 40.033203 20 C 40.777203 20 41.246859 20.805078 40.880859 21.455078 L 38.175781 26.503906 C 37.914781 26.967906 37.331234 27.134859 36.865234 26.880859 L 28.503906 21.833984 C 27.617906 21.350984 27.958797 20 28.966797 20 z M 24.96875 26.771484 C 26.42175 26.776484 27.858078 27.304812 29.080078 28.257812 L 39.230469 36.169922 L 28.246094 30.957031 C 26.232094 30.001031 23.766906 30.001031 21.753906 30.957031 L 10.769531 36.171875 L 20.919922 28.257812 C 22.141922 27.304813 23.57975 26.777484 24.96875 26.771484 z M 8.3535156 29.146484 C 8.6092656 29.146484 8.8650469 29.243953 9.0605469 29.439453 C 9.4515469 29.830453 9.4515469 30.462516 9.0605469 30.853516 L 8.3535156 31.560547 C 8.1585156 31.755547 7.9024844 31.853516 7.6464844 31.853516 C 7.3904844 31.853516 7.1344531 31.755547 6.9394531 31.560547 C 6.5494531 31.170547 6.5494531 30.537484 6.9394531 30.146484 L 7.6464844 29.439453 C 7.8419844 29.243953 8.0977656 29.146484 8.3535156 29.146484 z M 41.646484 29.146484 C 41.902234 29.146484 42.158016 29.243953 42.353516 29.439453 L 43.060547 30.146484 C 43.450547 30.536484 43.450547 31.169547 43.060547 31.560547 C 42.865547 31.755547 42.609516 31.853516 42.353516 31.853516 C 42.097516 31.853516 41.841484 31.755547 41.646484 31.560547 L 40.939453 30.853516 C 40.548453 30.462516 40.548453 29.830453 40.939453 29.439453 C 41.134953 29.243953 41.390734 29.146484 41.646484 29.146484 z M 10.353516 31.146484 C 10.609266 31.146484 10.865047 31.243953 11.060547 31.439453 C 11.451547 31.830453 11.451547 32.462516 11.060547 32.853516 L 10.353516 33.560547 C 10.158516 33.755547 9.9024844 33.853516 9.6464844 33.853516 C 9.3904844 33.853516 9.1344531 33.755547 8.9394531 33.560547 C 8.5494531 33.170547 8.5494531 32.537484 8.9394531 32.146484 L 9.6464844 31.439453 C 9.8419844 31.243953 10.097766 31.146484 10.353516 31.146484 z M 39.646484 31.146484 C 39.902234 31.146484 40.158016 31.243953 40.353516 31.439453 L 41.060547 32.146484 C 41.450547 32.536484 41.450547 33.169547 41.060547 33.560547 C 40.865547 33.755547 40.609516 33.853516 40.353516 33.853516 C 40.097516 33.853516 39.841484 33.755547 39.646484 33.560547 L 38.939453 32.853516 C 38.548453 32.462516 38.548453 31.830453 38.939453 31.439453 C 39.134953 31.243953 39.390734 31.146484 39.646484 31.146484 z M 24.015625 35.5 L 26 35.5 C 26.838 35.5 27.516422 36.199922 27.482422 37.044922 C 27.428422 38.404922 28.676109 39.46875 30.037109 39.46875 L 32.091797 39.46875 C 33.961797 39.46875 35.484375 41.035891 35.484375 42.962891 L 35.484375 42.998047 C 35.467375 44.631047 34.041203 45.905688 32.408203 45.929688 C 31.399203 45.944688 30.261719 45.955078 30.261719 45.955078 C 29.564719 45.955078 28.998047 45.390359 28.998047 44.693359 L 28.998047 41.667969 C 28.998047 41.115969 28.550047 40.667969 27.998047 40.667969 C 27.446047 40.667969 26.998047 41.115969 26.998047 41.667969 L 26.998047 40 C 26.998047 39.448 26.550047 39 25.998047 39 C 25.446047 39 24.998047 39.448 24.998047 40 C 24.998047 39.448 24.550047 39 23.998047 39 C 23.446047 39 22.998047 39.448 22.998047 40 L 22.998047 41.667969 C 22.998047 41.115969 22.550047 40.667969 21.998047 40.667969 C 21.446047 40.667969 20.998047 41.115969 20.998047 41.667969 L 20.998047 44.679688 C 20.998047 45.382688 20.424656 45.955078 19.722656 45.955078 C 19.722656 45.955078 18.594656 45.946547 17.597656 45.935547 C 15.956656 45.918547 14.517 44.641 14.5 43 L 14.5 42.962891 C 14.5 41.036891 16.021578 39.46875 17.892578 39.46875 L 20.015625 39.46875 C 21.400625 39.46875 22.524 38.331406 22.5 36.941406 C 22.486 36.133406 23.207625 35.5 24.015625 35.5 z M 18.052734 41.521484 A 1.5 1.5 0 0 0 18.052734 44.521484 A 1.5 1.5 0 0 0 18.052734 41.521484 z M 31.931641 41.521484 A 1.5 1.5 0 0 0 31.931641 44.521484 A 1.5 1.5 0 0 0 31.931641 41.521484 z">
    </path>
  </symbol>
  <symbol xmlns="http://www.w3.org/2000/svg" viewBox="0 0 24 24" id="starship">
    <path fill="#000000"
      d="M15.521 9.62a1.057 1.057 0 1 1-2.115 0a1.057 1.057 0 0 1 2.115 0zM24 12c0 6.627-5.373 12-12 12c-.35 0-.697-.015-1.04-.044c2.019-1.89 2.548-5.061 2.548-5.061l-3.226-1.053s-1.499 3.23-5.599 3.67A11.98 11.98 0 0 1 0 12C0 5.373 5.373 0 12 0s12 5.373 12 12zM8.628 6.606c-1.23-.13-1.885-.83-2.03-2.031c-.142 1.159-.77 1.88-2.032 2.031c1.168.227 1.83.918 2.031 2.032c-.02-1.154.666-1.825 2.031-2.032zm7.786 5.207c1.11-2.483.392-4.252-1.233-6.246c-2.043 1.5-3.759 3.023-3.636 5.149c-1.375.675-2.261 1.206-3.147 2.289l2.779 1.103l-.368 1.267l3.637 1.062l.443-1.181l2.825.651c.014-1.496-.38-3.097-1.3-4.094z">
    </path>
  </symbol>
  <symbol xmlns="http://www.w3.org/2000/svg" viewBox="0 0 16 16" id="tab-external">
    <path fill="#000000"
      d="M3.25 4a.25.25 0 0 0-.25.25v9a.75.75 0 0 1-.75.75H.75a.75.75 0 0 1 0-1.5h.75V4.25c0-.966.784-1.75 1.75-1.75h9.5c.966 0 1.75.784 1.75 1.75v8.25h.75a.75.75 0 0 1 0 1.5h-1.5a.75.75 0 0 1-.75-.75v-9a.25.25 0 0 0-.25-.25h-9.5Z">
    </path>
    <path fill="#000000"
      d="m7.97 7.97l-2.75 2.75a.75.75 0 1 0 1.06 1.06l2.75-2.75l1.543 1.543a.25.25 0 0 0 .427-.177V6.25a.25.25 0 0 0-.25-.25H6.604a.25.25 0 0 0-.177.427L7.97 7.97Z">
    </path>
  </symbol>
  <symbol xmlns="http://www.w3.org/2000/svg" viewBox="0 0 16 16" id="vehicle">
    <path fill="#000000"
      d="M7.5 3a.5.5 0 0 0 0 1h1a.5.5 0 0 0 0-1h-1ZM4.9 1A2.9 2.9 0 0 0 2 3.9V6h-.5a.5.5 0 0 0 0 1H2v6.7A1.3 1.3 0 0 0 3.3 15h1.4A1.3 1.3 0 0 0 6 13.7V13h4v.7a1.3 1.3 0 0 0 1.3 1.3h1.4a1.3 1.3 0 0 0 1.3-1.3V7h.5a.5.5 0 0 0 0-1H14V3.9A2.9 2.9 0 0 0 11.1 1H4.9ZM13 3.9V8H3V3.9C3 2.85 3.85 2 4.9 2h6.2c1.05 0 1.9.85 1.9 1.9Zm0 9.1v.7a.3.3 0 0 1-.3.3h-1.4a.3.3 0 0 1-.3-.3V13h2Zm-8 0v.7a.3.3 0 0 1-.3.3H3.3a.3.3 0 0 1-.3-.3V13h2Zm1.5-2.75a.75.75 0 1 1-1.5 0a.75.75 0 0 1 1.5 0Zm3.75.75a.75.75 0 1 1 0-1.5a.75.75 0 0 1 0 1.5Z">
    </path>
  </symbol>
  <symbol xmlns="http://www.w3.org/2000/svg" viewBox="0 0 24 24" id="website">
    <path fill="#000000"
      d="M16.36 14c.08-.66.14-1.32.14-2c0-.68-.06-1.34-.14-2h3.38c.16.64.26 1.31.26 2s-.1 1.36-.26 2m-5.15 5.56c.6-1.11 1.06-2.31 1.38-3.56h2.95a8.03 8.03 0 0 1-4.33 3.56M14.34 14H9.66c-.1-.66-.16-1.32-.16-2c0-.68.06-1.35.16-2h4.68c.09.65.16 1.32.16 2c0 .68-.07 1.34-.16 2M12 19.96c-.83-1.2-1.5-2.53-1.91-3.96h3.82c-.41 1.43-1.08 2.76-1.91 3.96M8 8H5.08A7.923 7.923 0 0 1 9.4 4.44C8.8 5.55 8.35 6.75 8 8m-2.92 8H8c.35 1.25.8 2.45 1.4 3.56A8.008 8.008 0 0 1 5.08 16m-.82-2C4.1 13.36 4 12.69 4 12s.1-1.36.26-2h3.38c-.08.66-.14 1.32-.14 2c0 .68.06 1.34.14 2M12 4.03c.83 1.2 1.5 2.54 1.91 3.97h-3.82c.41-1.43 1.08-2.77 1.91-3.97M18.92 8h-2.95a15.65 15.65 0 0 0-1.38-3.56c1.84.63 3.37 1.9 4.33 3.56M12 2C6.47 2 2 6.5 2 12a10 10 0 0 0 10 10a10 10 0 0 0 10-10A10 10 0 0 0 12 2Z">
    </path>
  </symbol>
</svg>