<svg xmlns="http://www.w3.org/2000/svg"  viewBox="0 0 50 50" width="100px" height="100px"><path d="M 18.564453 2 C 11.636453 2 6 7.6364531 6 14.564453 L 6 15 L 44 15 L 44 14.564453 C 44 7.6364531 38.363547 2 31.435547 2 L 24 2 L 18.564453 2 z M 6 17 L 6 19.277344 C 5.405 19.624344 5 20.263 5 21 L 5 27 L 5 27.003906 C 3.738 27.998906 3 29.629422 3 31.482422 C 3 33.030422 3.6132031 34.516156 4.6582031 35.535156 L 7.3613281 38.359375 C 7.2263281 38.585375 7.1110625 38.822078 7.0390625 39.080078 C 6.8080625 39.910078 6.9468281 40.799531 7.4238281 41.519531 L 8.6582031 43.384766 C 11.020203 47.206766 13.512484 47.955078 17.021484 47.955078 L 19.722656 47.955078 C 21.179656 47.955078 22.41775 47.004359 22.84375 45.693359 L 23 45.693359 L 23 46 C 23 46.552 23.448 47 24 47 C 24.552 47 25 46.552 25 46 C 25 46.552 25.448 47 26 47 C 26.552 47 27 46.552 27 46 L 27 45.693359 L 27.15625 45.693359 C 27.58225 47.004359 28.820344 47.955078 30.277344 47.955078 L 32.978516 47.955078 C 36.487516 47.955078 38.980172 47.208109 41.326172 43.412109 L 42.576172 41.519531 C 43.053172 40.799531 43.193891 39.910078 42.962891 39.080078 C 42.890891 38.822078 42.774625 38.584375 42.640625 38.359375 L 45.318359 35.560547 C 46.386359 34.516547 47 33.031422 47 31.482422 C 47 29.628422 46.262 27.998906 45 27.003906 L 45 27 L 45 21 C 45 20.263 44.595 19.624344 44 19.277344 L 44 17 L 6 17 z M 9.9394531 20 L 21.005859 20 C 22.013859 20 22.356703 21.350984 21.470703 21.833984 L 13.107422 26.880859 C 12.641422 27.135859 12.057875 26.967906 11.796875 26.503906 L 9.09375 21.455078 C 8.72775 20.805078 9.1944531 20 9.9394531 20 z M 28.966797 20 L 40.033203 20 C 40.777203 20 41.246859 20.805078 40.880859 21.455078 L 38.175781 26.503906 C 37.914781 26.967906 37.331234 27.134859 36.865234 26.880859 L 28.503906 21.833984 C 27.617906 21.350984 27.958797 20 28.966797 20 z M 24.96875 26.771484 C 26.42175 26.776484 27.858078 27.304812 29.080078 28.257812 L 39.230469 36.169922 L 28.246094 30.957031 C 26.232094 30.001031 23.766906 30.001031 21.753906 30.957031 L 10.769531 36.171875 L 20.919922 28.257812 C 22.141922 27.304813 23.57975 26.777484 24.96875 26.771484 z M 8.3535156 29.146484 C 8.6092656 29.146484 8.8650469 29.243953 9.0605469 29.439453 C 9.4515469 29.830453 9.4515469 30.462516 9.0605469 30.853516 L 8.3535156 31.560547 C 8.1585156 31.755547 7.9024844 31.853516 7.6464844 31.853516 C 7.3904844 31.853516 7.1344531 31.755547 6.9394531 31.560547 C 6.5494531 31.170547 6.5494531 30.537484 6.9394531 30.146484 L 7.6464844 29.439453 C 7.8419844 29.243953 8.0977656 29.146484 8.3535156 29.146484 z M 41.646484 29.146484 C 41.902234 29.146484 42.158016 29.243953 42.353516 29.439453 L 43.060547 30.146484 C 43.450547 30.536484 43.450547 31.169547 43.060547 31.560547 C 42.865547 31.755547 42.609516 31.853516 42.353516 31.853516 C 42.097516 31.853516 41.841484 31.755547 41.646484 31.560547 L 40.939453 30.853516 C 40.548453 30.462516 40.548453 29.830453 40.939453 29.439453 C 41.134953 29.243953 41.390734 29.146484 41.646484 29.146484 z M 10.353516 31.146484 C 10.609266 31.146484 10.865047 31.243953 11.060547 31.439453 C 11.451547 31.830453 11.451547 32.462516 11.060547 32.853516 L 10.353516 33.560547 C 10.158516 33.755547 9.9024844 33.853516 9.6464844 33.853516 C 9.3904844 33.853516 9.1344531 33.755547 8.9394531 33.560547 C 8.5494531 33.170547 8.5494531 32.537484 8.9394531 32.146484 L 9.6464844 31.439453 C 9.8419844 31.243953 10.097766 31.146484 10.353516 31.146484 z M 39.646484 31.146484 C 39.902234 31.146484 40.158016 31.243953 40.353516 31.439453 L 41.060547 32.146484 C 41.450547 32.536484 41.450547 33.169547 41.060547 33.560547 C 40.865547 33.755547 40.609516 33.853516 40.353516 33.853516 C 40.097516 33.853516 39.841484 33.755547 39.646484 33.560547 L 38.939453 32.853516 C 38.548453 32.462516 38.548453 31.830453 38.939453 31.439453 C 39.134953 31.243953 39.390734 31.146484 39.646484 31.146484 z M 24.015625 35.5 L 26 35.5 C 26.838 35.5 27.516422 36.199922 27.482422 37.044922 C 27.428422 38.404922 28.676109 39.46875 30.037109 39.46875 L 32.091797 39.46875 C 33.961797 39.46875 35.484375 41.035891 35.484375 42.962891 L 35.484375 42.998047 C 35.467375 44.631047 34.041203 45.905688 32.408203 45.929688 C 31.399203 45.944688 30.261719 45.955078 30.261719 45.955078 C 29.564719 45.955078 28.998047 45.390359 28.998047 44.693359 L 28.998047 41.667969 C 28.998047 41.115969 28.550047 40.667969 27.998047 40.667969 C 27.446047 40.667969 26.998047 41.115969 26.998047 41.667969 L 26.998047 40 C 26.998047 39.448 26.550047 39 25.998047 39 C 25.446047 39 24.998047 39.448 24.998047 40 C 24.998047 39.448 24.550047 39 23.998047 39 C 23.446047 39 22.998047 39.448 22.998047 40 L 22.998047 41.667969 C 22.998047 41.115969 22.550047 40.667969 21.998047 40.667969 C 21.446047 40.667969 20.998047 41.115969 20.998047 41.667969 L 20.998047 44.679688 C 20.998047 45.382688 20.424656 45.955078 19.722656 45.955078 C 19.722656 45.955078 18.594656 45.946547 17.597656 45.935547 C 15.956656 45.918547 14.517 44.641 14.5 43 L 14.5 42.962891 C 14.5 41.036891 16.021578 39.46875 17.892578 39.46875 L 20.015625 39.46875 C 21.400625 39.46875 22.524 38.331406 22.5 36.941406 C 22.486 36.133406 23.207625 35.5 24.015625 35.5 z M 18.052734 41.521484 A 1.5 1.5 0 0 0 18.052734 44.521484 A 1.5 1.5 0 0 0 18.052734 41.521484 z M 31.931641 41.521484 A 1.5 1.5 0 0 0 31.931641 44.521484 A 1.5 1.5 0 0 0 31.931641 41.521484 z"/></svg>